<svg height="62" viewBox="0 0 250 62" width="250" xmlns="http://www.w3.org/2000/svg"><g fill="#291818"><path d="m58.64.634v9.192h1.938v-9.192h-.948zm24.686-.379c-3.175 0-5.662 2.087-5.662 4.781s2.487 4.79 5.662 4.79c3.17 0 5.672-2.095 5.672-4.79s-2.503-4.781-5.672-4.781zm0 7.953c-1.908 0-3.614-1.396-3.614-3.172 0-1.777 1.707-3.181 3.614-3.181 1.9 0 3.623 1.404 3.623 3.181s-1.722 3.172-3.623 3.172zm16.705-1.285-5.39-6.289v.028l-.004-.028h-1.735v9.192h1.95v-6.278h.024l5.374 6.278h1.739v-9.192h-1.958zm-64.505-2.281-3.445-4.008h-1.741v9.192h1.954v-6.278l2.951 3.198h.574l2.95-3.198v6.278h1.957v-9.192h-1.728zm-14.373 5.184-4.457-9.192h-1.332l-4.48 9.192h2.092l3.059-6.531 1.952 4.226h-2.066l-1.163 1.173h3.768l.532 1.132zm128.961-7.97c1.193 0 2.226.486 2.9 1.344l1.61-1.055c-1.174-1.278-2.818-1.89-4.51-1.89-3.167 0-5.655 2.088-5.655 4.782s2.49 4.79 5.655 4.79c1.69 0 3.336-.606 4.51-1.895l-1.584-1.006c-.667.805-1.732 1.282-2.926 1.282-1.9 0-3.604-1.395-3.604-3.171 0-1.777 1.705-3.18 3.604-3.18zm27.628-1.601c-3.154 0-5.66 2.087-5.66 4.781s2.507 4.79 5.66 4.79c3.144 0 5.678-2.095 5.678-4.79s-2.534-4.781-5.678-4.781zm0 7.953c-1.903 0-3.602-1.396-3.602-3.172 0-1.777 1.699-3.18 3.602-3.18 1.911 0 3.616 1.403 3.616 3.18s-1.705 3.172-3.616 3.172zm14.968-6.352c1.193 0 2.227.486 2.894 1.344l1.614-1.055c-1.176-1.278-2.821-1.89-4.507-1.89-3.167 0-5.662 2.088-5.662 4.782s2.495 4.79 5.662 4.79c1.686 0 3.33-.606 4.507-1.895l-1.588-1.006c-.666.805-1.727 1.282-2.92 1.282-1.903 0-3.629-1.395-3.629-3.171.001-1.777 1.726-3.18 3.63-3.18zm13.728-1.601c-3.144 0-5.67 2.087-5.67 4.781s2.526 4.79 5.67 4.79c3.166 0 5.67-2.095 5.67-4.79s-2.505-4.781-5.67-4.781zm0 7.953c-1.884 0-3.618-1.396-3.618-3.172 0-1.777 1.733-3.18 3.618-3.18 1.908 0 3.632 1.403 3.632 3.18s-1.724 3.172-3.632 3.172zm33.998-7.574v1.616h3.116v7.576h1.933v-7.576h3.091v-1.616zm-185.653 9.192-4.458-9.192h-1.331l-4.48 9.192h2.091l3.06-6.531 1.953 4.226h-2.067l-1.163 1.173h3.769l.532 1.132zm183.181 0-4.457-9.192h-1.331l-4.48 9.192h2.093l3.058-6.531 1.952 4.226h-2.065l-1.164 1.173h3.768l.533 1.132zm-237.863-9.192h1.949v7.577h5.84v1.615h-7.789zm216.54 0h1.95v7.577h5.842v1.615h-7.792zm-149.479 2.294c0-.543.608-1.244 2.219-1.244 1.021 0 1.893.276 2.86 1.095l1.442-1.119c-1.036-.931-2.445-1.405-4.2-1.405-2.4 0-4.376 1.126-4.376 2.76 0 3.742 6.823 1.773 6.823 3.823 0 .868-1.049 1.366-2.539 1.37-1.222 0-2.332-.502-3.126-1.244l-1.479 1.154c1.339 1.216 3.05 1.709 4.53 1.709 2.429 0 4.66-1.164 4.66-3.078.001-3.821-6.814-1.752-6.814-3.821zm50.145-2.358h-4.396v9.062h4.396c3.439 0 5.586-2.137 5.586-4.528 0-2.396-2.073-4.533-5.586-4.533zm0 7.48h-2.471v-5.89h2.47c2.247 0 3.664 1.35 3.664 2.945 0 1.593-1.417 2.945-3.663 2.945zm18.3-7.48h-1.931v5.015c0 1.658-1.183 2.65-2.698 2.65-1.489 0-2.69-.991-2.69-2.65v-5.015h-1.927v5.365c0 2.087 1.835 3.89 4.617 3.89 2.795 0 4.63-1.803 4.63-3.89v-5.364z" transform="translate(.043 32.632)"/><path d="m2.24 4.447v-3.833h-1.947v9.194h1.947v-3.764h2.859l1.452-1.463h-4.311zm5.307-3.833v9.194h1.948v-3.855-1.506-3.833z" transform="translate(158.568 32.632)"/><path d="m132.787 61.91h1.164v-4.686h-1.164v4.685zm9.44-2.839v-.069l-.013.07c-.81-.07-1.528-.148-1.528-.59 0-.3.423-.629 1.29-.629.613 0 1.125.174 1.598.602 0 0 .757-.527.894-.614-.606-.481-1.44-.736-2.424-.736-1.454 0-2.543.622-2.543 1.422 0 1.116 1.278 1.23 2.433 1.347.809.108 1.49.172 1.49.609 0 .504-.744.697-1.436.697-.638 0-1.322-.231-1.822-.639-.092.073-.73.509-.842.601.672.535 1.65.858 2.61.858 1.329 0 2.717-.55 2.717-1.572-.002-1.098-1.31-1.241-2.424-1.357m-16.198 1.13c.806-.247 1.32-.775 1.32-1.37 0-.978-.886-1.607-2.21-1.607h-2.902v4.685h1.13v-1.48h.078l1.33.038s1.186 1.388 1.186 1.442h1.477c-.203-.232-1.522-1.677-1.522-1.677zm-2.663-.597v-1.558h1.69c.842 0 1.143.41 1.143.786 0 .355-.3.772-1.143.772zm-18.285-2.38h-2.914v4.685h1.159v-1.48h1.755c1.32 0 2.187-.637 2.187-1.597 0-.98-.868-1.608-2.187-1.608m-.089 2.38h-1.666v-1.558h1.666c.84 0 1.154.41 1.154.786 0 .355-.313.772-1.154.772m8.652-2.38c-.041.078-2.476 4.476-2.596 4.685h1.24c.031-.077.446-.884.446-.884h2.589s.402.807.469.884h1.208c-.103-.21-2.53-4.607-2.574-4.685h-.783zm-.474 3.02.885-1.653.864 1.645zm31.48-39.85h-3.111l-1.698-8.239-.598.21c-3.03 1.066-6.729 2.157-11.184 2.157-.888 0-1.779-.043-2.649-.13-6.038-.525-12.754-3.865-16.73-6.941l-.707-.548-2.692 13.492h-3.114l1.25-20.395h5.752c4.678 6.967 11.231 10.608 19.334 10.608 5.248 0 9.785-1.953 12.178-3.103h3.183l.787 12.889zm-9.864-20.036c-1.718 0-3.11 1.333-3.11 2.978 0 1.644 1.392 2.977 3.11 2.977s3.11-1.333 3.11-2.977c.001-1.646-1.392-2.978-3.11-2.978z"/></g></svg>